<svg id="visual" viewBox="0 0 900 600" width="900" height="600" xmlns="http://www.w3.org/2000/svg" xmlns:xlink="http://www.w3.org/1999/xlink" version="1.1"><rect x="0" y="0" width="900" height="600" fill="#1e2124"></rect><path d="M0 396L21.5 411.5C43 427 86 458 128.8 473C171.7 488 214.3 487 257.2 482.2C300 477.3 343 468.7 385.8 461C428.7 453.3 471.3 446.7 514.2 456.2C557 465.7 600 491.3 642.8 494.5C685.7 497.7 728.3 478.3 771.2 464.2C814 450 857 441 878.5 436.5L900 432L900 601L878.5 601C857 601 814 601 771.2 601C728.3 601 685.7 601 642.8 601C600 601 557 601 514.2 601C471.3 601 428.7 601 385.8 601C343 601 300 601 257.2 601C214.3 601 171.7 601 128.8 601C86 601 43 601 21.5 601L0 601Z" fill="#1660cf" stroke-linecap="round" stroke-linejoin="miter"></path></svg>